<svg width="25" height="25" viewBox="0 0 25 25" fill="none" xmlns="http://www.w3.org/2000/svg">
<path d="M12.7444 5.28985C15.1488 5.28985 15.4334 5.30054 16.3788 5.34272C17.2579 5.38153 17.732 5.52888 18.0486 5.65206C18.4671 5.81403 18.7691 6.01088 19.0818 6.32359C19.3985 6.64024 19.5914 6.93888 19.7567 7.35733C19.8799 7.67397 20.0272 8.15147 20.0661 9.02717C20.1082 9.97654 20.1189 10.2611 20.1189 12.6621C20.1189 15.0631 20.1082 15.3511 20.0661 16.2971C20.0272 17.1761 19.8799 17.6503 19.7567 17.9669C19.5947 18.3854 19.3985 18.6874 19.0852 19.0001C18.7685 19.3167 18.4699 19.5096 18.052 19.675C17.7354 19.7982 17.2573 19.9455 16.3822 19.9843C15.4328 20.0265 15.1482 20.0372 12.7472 20.0372C10.3462 20.0372 10.0583 20.0265 9.11226 19.9843C8.23319 19.9455 7.75907 19.7982 7.44242 19.675C7.02398 19.513 6.72196 19.3167 6.40869 19.0035C6.09204 18.6868 5.89913 18.3882 5.73378 17.9703C5.61061 17.6536 5.46325 17.1756 5.42444 16.3004C5.38226 15.3511 5.37158 15.0665 5.37158 12.6655C5.37158 10.2645 5.38226 9.97654 5.42444 9.03054C5.46325 8.15147 5.61061 7.67735 5.73378 7.3607C5.89576 6.94226 6.0926 6.64024 6.40531 6.32697C6.72196 6.01032 7.02061 5.81741 7.43905 5.65206C7.7557 5.52888 8.23319 5.38153 9.10889 5.34272C10.0543 5.30054 10.3395 5.28985 12.7438 5.28985H12.7444ZM12.7444 3.66951C10.3012 3.66951 9.99583 3.68019 9.03577 3.72238C8.07965 3.76456 7.42218 3.91922 6.853 4.14082C6.25908 4.37254 5.75627 4.6785 5.2574 5.18131C4.7546 5.68074 4.44864 6.18298 4.21692 6.77353C3.99532 7.34664 3.84066 8.00018 3.79847 8.9563C3.75629 9.91974 3.74561 10.2251 3.74561 12.6683C3.74561 15.1115 3.75629 15.4169 3.79847 16.3769C3.84066 17.3331 3.99532 17.9905 4.21692 18.5597C4.4492 19.1536 4.7546 19.6564 5.2574 20.1553C5.75627 20.6542 6.25908 20.9641 6.84963 21.1924C7.42274 21.414 8.07628 21.5687 9.0324 21.6109C9.9919 21.653 10.2979 21.6637 12.741 21.6637C15.1842 21.6637 15.4902 21.653 16.4497 21.6109C17.4058 21.5687 18.0633 21.414 18.6324 21.1924C19.223 20.9641 19.7258 20.6547 20.2247 20.1553C20.7235 19.6559 21.0334 19.1536 21.2618 18.5631C21.4834 17.99 21.638 17.3364 21.6802 16.3803C21.7224 15.4208 21.7331 15.1149 21.7331 12.6717C21.7331 10.2285 21.7224 9.92311 21.6802 8.96305C21.638 8.00693 21.4834 7.34945 21.2618 6.78028C21.0402 6.18242 20.7342 5.68018 20.232 5.18074C19.7331 4.68187 19.2303 4.37198 18.6397 4.14363C18.0666 3.92204 17.4131 3.76737 16.457 3.72519C15.4941 3.67963 15.1881 3.66895 12.745 3.66895L12.7444 3.66951Z" fill="black"/>
<path d="M12.7442 8.0459C10.1924 8.0459 8.12158 10.1162 8.12158 12.6685C8.12158 15.2208 10.1919 17.291 12.7442 17.291C15.2964 17.291 17.3667 15.2208 17.3667 12.6685C17.3667 10.1167 15.2964 8.0459 12.7442 8.0459ZM12.7442 15.6668C11.0884 15.6668 9.74587 14.3242 9.74587 12.6685C9.74587 11.0127 11.0884 9.67018 12.7442 9.67018C14.3999 9.67018 15.7424 11.0127 15.7424 12.6685C15.7424 14.3242 14.3999 15.6668 12.7442 15.6668Z" fill="black"/>
<path d="M18.6278 7.86298C18.6278 8.45915 18.1447 8.94228 17.5485 8.94228C16.9524 8.94228 16.4692 8.45915 16.4692 7.86298C16.4692 7.26681 16.9524 6.78369 17.5485 6.78369C18.1447 6.78369 18.6278 7.26681 18.6278 7.86298Z" fill="black"/>
</svg>
