<svg width="25" height="25" viewBox="0 0 25 25" fill="none" xmlns="http://www.w3.org/2000/svg">
<path d="M20.0586 3.66895H5.43359C4.50547 3.66895 3.74609 4.42832 3.74609 5.35645V19.9814C3.74609 20.9096 4.50547 21.6689 5.43359 21.6689H20.0586C20.9867 21.6689 21.7461 20.9096 21.7461 19.9814V5.35645C21.7461 4.42832 20.9867 3.66895 20.0586 3.66895ZM10.4961 18.2939H8.24609V10.4189H10.4961V18.2939ZM9.37109 9.29395C8.74897 9.29395 8.24609 8.79107 8.24609 8.16895C8.24609 7.54682 8.74897 7.04395 9.37109 7.04395C9.99322 7.04395 10.4961 7.54682 10.4961 8.16895C10.4961 8.79107 9.99322 9.29395 9.37109 9.29395ZM18.3711 18.2939H16.1211V13.7939C16.1211 13.1718 15.6182 12.6689 14.9961 12.6689C14.374 12.6689 13.8711 13.1718 13.8711 13.7939V18.2939H11.6211V10.4189H13.8711V11.8145C14.3352 11.1783 15.045 10.4189 15.8398 10.4189C17.2393 10.4189 18.3711 11.6778 18.3711 13.2314V18.2939Z" fill="black"/>
</svg>
