<svg width="108" height="46" viewBox="0 0 108 46" fill="none" xmlns="http://www.w3.org/2000/svg">
<path d="M19.0842 3.35543C18.8811 3.3556 18.667 3.35578 18.4663 3.37972C16.1331 3.57435 13.9891 4.56548 12.4622 6.37108C10.8006 8.33604 10.3987 10.4063 10.4182 12.9079L5.97308 12.9011C5.77397 12.9009 5.56815 12.8952 5.35942 12.8894C4.77947 12.8734 4.17707 12.8567 3.6338 12.9562C3.30617 13.0163 3.02028 13.1756 2.78987 13.4155C2.38647 13.8354 2.37666 14.3659 2.40288 14.9093C2.44422 15.7661 2.51781 16.6241 2.59132 17.4811C2.6313 17.9473 2.6713 18.4136 2.70605 18.8792L3.44384 28.4122L3.80281 33.0159C3.82049 33.2432 3.83462 33.4727 3.8488 33.7031C3.8995 34.527 3.95094 35.363 4.16845 36.1512C4.5442 37.4914 5.28892 38.699 6.31772 39.637C7.21685 40.4534 8.30363 41.0359 9.4817 41.3322C10.4781 41.5727 11.6358 41.5455 12.7232 41.5199C13.0468 41.5123 13.3643 41.5049 13.6694 41.5047L19.6535 41.5028L24.8798 41.5051C25.1653 41.5051 25.4593 41.5121 25.7568 41.5192C26.7221 41.5421 27.7283 41.566 28.6304 41.3558C29.8995 41.0604 31.1837 40.3637 32.1102 39.4451C32.9724 38.5899 33.6612 37.448 33.9621 36.2682C34.1925 35.3656 34.2503 34.3756 34.3063 33.4153C34.3244 33.1057 34.3423 32.799 34.3657 32.4995L34.8562 26.1857L35.4678 18.4333C35.4975 18.0504 35.5358 17.6634 35.5741 17.2756C35.6573 16.435 35.7411 15.5881 35.7392 14.7574C35.7383 14.2464 35.6301 13.7697 35.264 13.3903C35.012 13.1288 34.6001 13.0011 34.2515 12.9442C33.7291 12.8591 33.1561 12.8743 32.6019 12.889C32.397 12.8944 32.1946 12.8998 31.9983 12.9C30.6003 12.8972 29.2018 12.9022 27.8038 12.9147L27.7437 12.9156C27.7766 10.2366 27.1802 7.93786 25.2543 5.97859C23.645 4.31117 21.4306 3.36512 19.1135 3.35541L19.0842 3.35543ZM27.5565 18.636L27.6319 18.6404C27.6339 18.6455 27.6357 18.6503 27.6375 18.6547C27.6385 18.657 27.6394 18.6592 27.6403 18.6614C27.6435 18.6694 27.6465 18.6763 27.6491 18.6823L27.6523 18.6895C27.6661 18.7208 27.6686 18.7265 27.6679 18.7769C27.6439 22.0619 26.7646 26.2911 24.4332 28.6969C22.2743 30.9247 18.9217 32.0179 15.8643 32.0785C17.2884 29.4001 19.5768 26.86 21.9373 24.9734C22.3023 24.6819 22.6844 24.4184 23.0668 24.1547C23.313 23.985 23.5593 23.8151 23.8012 23.6377C24.0361 23.4653 24.3523 23.2315 24.3856 22.9172C24.4161 22.6278 24.2622 22.4032 24.0809 22.1964C23.8271 22.0493 23.6413 21.9879 23.3514 22.0729C22.9399 22.1937 22.5252 22.4982 22.151 22.773C22.0519 22.8458 21.9555 22.9165 21.8628 22.9812C18.8362 25.1244 16.3212 27.9106 14.4981 31.14C14.4366 28.5126 15.0349 26.3116 16.6463 24.1981C19.0645 21.0264 23.6931 19.1624 27.5565 18.636ZM4.06109 14.5465L34.0897 14.5461C33.9832 15.5574 33.9141 16.578 33.8452 17.597C33.8068 18.1647 33.7684 18.7324 33.7236 19.2975L32.915 29.4297L32.6127 33.1634C32.5992 33.3255 32.5869 33.4884 32.5746 33.6517C32.5261 34.2959 32.4772 34.9459 32.3529 35.5766C32.2253 36.2238 31.9775 36.7864 31.6418 37.3509C31.5124 37.5474 31.3719 37.7365 31.2212 37.9172C30.3506 38.9574 28.9217 39.7322 27.5644 39.8348C26.8253 39.8906 26.0648 39.8767 25.3115 39.8628C24.9855 39.8568 24.6606 39.8508 24.3394 39.8506L18.1094 39.8487L13.1519 39.851C12.9128 39.8511 12.6694 39.8562 12.4242 39.8612C11.6724 39.8768 10.9025 39.8927 10.1799 39.7683C9.2321 39.6028 8.34634 39.1853 7.61595 38.5593C6.74105 37.8215 6.11315 36.8336 5.81691 35.7282C5.61425 34.9956 5.56372 34.2149 5.5141 33.4484C5.50164 33.2559 5.48923 33.0642 5.47448 32.8744L5.17963 29.0755L4.06109 14.5465ZM28.2233 16.8755L28.201 16.8779C23.6427 17.4052 18.4534 19.2801 15.507 22.9725C13.6132 25.3456 12.5786 28.4323 12.9203 31.4719C12.9954 32.1394 13.1465 32.7774 13.3644 33.4121C13.3398 33.4751 13.3097 33.5507 13.2755 33.6367C12.9014 34.5769 12.0319 36.7623 12.3343 37.4087C12.4218 37.5955 12.5999 37.7207 12.7931 37.7822C12.8727 37.8072 12.9529 37.8215 13.0357 37.8312C13.2911 37.7892 13.5272 37.7365 13.6809 37.5081C13.8459 37.2623 14.015 36.6721 14.1595 36.1673C14.2284 35.9268 14.2917 35.7057 14.3465 35.5502C14.5338 35.0182 14.7464 34.495 14.9588 33.9725L14.9613 33.9664C14.9861 33.9052 15.011 33.844 15.0358 33.7829C18.7946 33.794 22.8092 32.6174 25.5284 29.9344C28.5694 26.9333 29.3355 22.094 29.3415 17.9987C29.3419 17.6758 29.3197 17.2927 29.0835 17.0457C28.9383 16.8938 28.7197 16.848 28.5167 16.8525C28.4188 16.8547 28.3209 16.8651 28.2233 16.8755ZM18.7188 4.99782C18.8644 4.98881 19.0105 4.98067 19.1561 4.98169C20.9415 4.99421 22.7292 5.79274 23.9839 7.05103C25.6921 8.76436 26.0416 10.5825 26.0453 12.908L19.5037 12.9044L12.1428 12.9136C12.0865 10.9147 12.4084 9.08889 13.7198 7.51051C14.9796 5.99421 16.7776 5.17123 18.7188 4.99782Z" fill="#030A06"/>
<path d="M27.6319 18.6404L27.5565 18.636C23.6931 19.1624 19.0645 21.0264 16.6463 24.1981C15.0349 26.3116 14.4366 28.5126 14.4981 31.14C16.3212 27.9106 18.8361 25.1244 21.8628 22.9812C21.9555 22.9165 22.0519 22.8458 22.151 22.773C22.5252 22.4982 22.9399 22.1937 23.3514 22.073C23.6413 21.9879 23.8271 22.0493 24.0809 22.1964C24.2622 22.4032 24.4161 22.6278 24.3856 22.9173C24.3523 23.2315 24.0361 23.4654 23.8012 23.6377C23.5593 23.8151 23.313 23.985 23.0668 24.1547C22.6844 24.4184 22.3023 24.6819 21.9373 24.9734C19.5768 26.86 17.2884 29.4001 15.8643 32.0785C18.9217 32.0179 22.2743 30.9247 24.4332 28.6969C26.7646 26.2911 27.6439 22.0619 27.6679 18.7769C27.6686 18.7265 27.6661 18.7208 27.6523 18.6895C27.649 18.682 27.6449 18.6728 27.6402 18.6614C27.6377 18.6552 27.6349 18.6482 27.6319 18.6404ZM28.201 16.8779L28.2233 16.8755C28.3209 16.8651 28.4188 16.8547 28.5167 16.8525C28.7197 16.848 28.9383 16.8938 29.0835 17.0457C29.3197 17.2927 29.3419 17.6758 29.3415 17.9988C29.3354 22.094 28.5694 26.9333 25.5284 29.9344C22.8092 32.6174 18.7946 33.794 15.0358 33.7829C15.011 33.844 14.9861 33.9052 14.9613 33.9664L14.9588 33.9725C14.7464 34.495 14.5338 35.0182 14.3465 35.5502C14.2917 35.7057 14.2284 35.9268 14.1595 36.1673C14.015 36.6721 13.8459 37.2623 13.6809 37.5081C13.5272 37.7365 13.2911 37.7892 13.0357 37.8312C12.9529 37.8215 12.8727 37.8072 12.7931 37.7822C12.5999 37.7207 12.4217 37.5955 12.3343 37.4087C12.0319 36.7623 12.9014 34.5769 13.2755 33.6367C13.3097 33.5507 13.3398 33.4751 13.3644 33.4121C13.1465 32.7774 12.9954 32.1394 12.9203 31.4719C12.5786 28.4324 13.6132 25.3456 15.507 22.9725C18.4534 19.2801 23.6427 17.4052 28.201 16.8779Z" fill="#030A06"/>
<path d="M28.2232 16.8755L28.2009 16.8779C23.6426 17.4052 18.4533 19.2801 15.5069 22.9725C13.6132 25.3456 12.5785 28.4324 12.9203 31.4719C12.9953 32.1394 13.1465 32.7774 13.3643 33.4121C13.3397 33.4751 13.3096 33.5507 13.2754 33.6367C12.9013 34.5769 12.0318 36.7623 12.3342 37.4087C12.4217 37.5955 12.5998 37.7207 12.793 37.7822C12.8726 37.8072 12.9528 37.8215 13.0357 37.8312C13.291 37.7892 13.5271 37.7365 13.6808 37.5081C13.8459 37.2623 14.0148 36.6724 14.1594 36.1676C14.2283 35.927 14.2916 35.7057 14.3464 35.5502C14.5337 35.0182 14.7463 34.495 14.9587 33.9725C14.9595 33.9704 14.9604 33.9684 14.9612 33.9664C14.986 33.9052 15.0109 33.844 15.0357 33.7829C18.7945 33.794 22.8091 32.6174 25.5283 29.9344C28.5693 26.9333 29.3354 22.094 29.3414 17.9988C29.3418 17.6758 29.3196 17.2927 29.0834 17.0457C28.9382 16.8938 28.7196 16.848 28.5166 16.8525C28.4187 16.8547 28.3208 16.8651 28.2232 16.8755ZM27.5564 18.636L27.6318 18.6404C27.6348 18.6482 27.6376 18.6552 27.6402 18.6614C27.6449 18.6729 27.6489 18.6819 27.6522 18.6895C27.666 18.7208 27.6685 18.7265 27.6678 18.7769C27.6438 22.0619 26.7645 26.2911 24.4331 28.6969C22.2742 30.9247 18.9216 32.0179 15.8642 32.0785C17.2883 29.4001 19.5767 26.86 21.9372 24.9734C22.3022 24.6819 22.6844 24.4184 23.0668 24.1547C23.313 23.985 23.5593 23.8151 23.8012 23.6377C24.036 23.4654 24.3522 23.2315 24.3855 22.9173C24.416 22.6278 24.2621 22.4032 24.0809 22.1964C23.8271 22.0493 23.6412 21.9879 23.3513 22.073C22.9398 22.1937 22.5252 22.4982 22.1509 22.773C22.0518 22.8458 21.9554 22.9165 21.8627 22.9812C18.8361 25.1244 16.3211 27.9106 14.498 31.14C14.4366 28.5126 15.0349 26.3116 16.6463 24.1981C19.0644 21.0264 23.693 19.1624 27.5564 18.636Z" fill="#030A06"/>
<path d="M86.9158 28.0073C86.8018 24.7786 84.0925 22.2539 80.8642 22.3673C77.635 22.4803 75.1092 25.1907 75.2232 28.4194C75.3372 31.6487 78.0476 34.1739 81.2763 34.06C84.5051 33.9455 87.0298 31.2356 86.9158 28.0073ZM81.0675 24.1225C82.0093 24.1607 82.7726 24.3871 83.4906 25.023C84.3462 25.7802 84.8233 26.8742 84.8857 28.0073C84.9487 29.1415 84.5918 30.2912 83.8196 31.136C83.1141 31.9081 82.2341 32.2537 81.2031 32.3053C80.2623 32.2955 79.4861 32.149 78.7439 31.5316C77.8769 30.8106 77.3869 29.7429 77.2946 28.6288C77.1991 27.4704 77.5024 26.2728 78.2714 25.3841C79.0343 24.5031 79.9353 24.1999 81.0675 24.1225Z" fill="#030A06"/>
<path d="M70.6574 27.5229C70.2726 24.3122 67.3552 22.0238 64.1455 22.4147C60.9443 22.8046 58.6632 25.7126 59.047 28.9145C59.4308 32.1164 62.3346 34.4029 65.5372 34.0253C68.7483 33.6462 71.0423 30.7331 70.6574 27.5229ZM64.3328 24.1699C65.2693 24.0935 66.1179 24.1921 66.9088 24.7362C67.7969 25.3469 68.3554 26.2902 68.5401 27.344C68.7497 28.5406 68.5526 29.8202 67.8327 30.8172C67.2025 31.6904 66.415 32.1237 65.3659 32.2908C64.4076 32.3398 63.561 32.2815 62.7539 31.7105C61.8834 31.0973 61.2969 30.1591 61.1269 29.1079C60.9314 27.9485 61.1657 26.6142 61.8578 25.6496C62.4661 24.8022 63.3154 24.3324 64.3328 24.1699Z" fill="#030A06"/>
<path d="M99.1799 22.36C99.151 22.3611 99.1227 22.3631 99.0938 22.3667C97.6213 22.5406 96.2952 23.2534 95.3694 24.4221C94.3131 25.7564 93.9505 27.4482 94.1589 29.1213C94.3296 30.5908 95.0816 31.9308 96.2467 32.8432C97.6269 33.9155 99.3769 34.1878 101.082 33.9547C102.069 33.8195 103.552 33.3471 104.182 32.526C104.36 32.2954 104.449 32.0138 104.408 31.7229C104.379 31.5187 104.29 31.3232 104.122 31.1978C103.928 31.0539 103.67 31.0359 103.441 31.0808C103.122 31.143 102.836 31.3403 102.564 31.5274C102.507 31.5668 102.451 31.6058 102.395 31.643C101.204 32.2619 99.8829 32.5528 98.5729 32.1283C97.6408 31.8214 96.8708 31.1525 96.4376 30.2715C96.2116 29.8212 96.0992 29.3431 95.9991 28.8526H101.62C101.853 28.8529 102.104 28.861 102.362 28.8692C103.029 28.8906 103.742 28.9135 104.33 28.8083C104.498 28.7784 104.658 28.6886 104.78 28.57C105.056 28.3007 105.105 27.9196 105.097 27.5518C105.065 26.1438 104.404 24.7548 103.38 23.8021C102.197 22.702 100.771 22.2883 99.1799 22.36ZM99.3532 24.1194C100.206 24.0193 101.067 24.237 101.77 24.7316C102.61 25.3289 103.051 26.1768 103.228 27.1748C102.516 27.1834 101.802 27.1815 101.089 27.1795C100.733 27.1785 100.376 27.1776 100.02 27.1779L96.0672 27.1831C96.2483 26.575 96.4582 26.0226 96.8471 25.513C97.4737 24.6924 98.3413 24.2524 99.3532 24.1194Z" fill="#030A06"/>
<path d="M67.8773 18.1803C69.9869 18.1303 72.1078 18.1767 74.2188 18.1731C75.4211 18.171 76.9571 18.0736 78.1243 18.1937C78.312 18.2133 78.4616 18.2665 78.6045 18.3913C78.8077 18.5687 78.9428 18.8364 78.95 19.1077C78.9562 19.3527 78.8061 19.6338 78.6292 19.7983C78.4941 19.9231 78.3332 19.9732 78.1552 20.0021C77.6694 20.0804 77.133 20.0345 76.6399 20.034L74.0208 20.0294L74.0197 29.7497C74.0234 30.5687 74.127 32.3554 74.0037 33.0522C73.9651 33.2709 73.8856 33.4891 73.735 33.6567C73.5731 33.8367 73.3497 33.9275 73.1094 33.9326C72.8577 33.9383 72.6122 33.8831 72.4306 33.7C72.2171 33.486 72.1387 33.1708 72.1124 32.8784C72.0639 32.3389 72.1083 31.7679 72.1145 31.2258C72.1237 30.4238 72.1165 29.6213 72.116 28.8192L72.1222 20.0278C71.2511 20.032 68.2359 20.1707 67.6185 19.8906C67.393 19.7885 67.2514 19.6307 67.1696 19.396C67.0823 19.1464 67.1221 18.8802 67.2482 18.6512C67.3958 18.383 67.5929 18.268 67.8773 18.1803Z" fill="#030A06"/>
<path d="M54.0782 22.3678C54.8618 22.3235 55.6274 22.3735 56.3883 22.5772C57.1917 22.7923 58.4204 23.2663 58.8358 24.0286C58.95 24.2386 59.0095 24.4897 58.929 24.7218C58.8466 24.9586 58.6217 25.1396 58.3951 25.2325C57.7344 25.5032 56.9071 24.5929 56.2855 24.3587C55.2747 23.9776 54.059 23.9987 53.0755 24.4578C52.172 24.8797 51.5224 25.6786 51.186 26.6065C50.7956 27.6834 50.7626 29.0879 51.2583 30.1375C51.7179 31.1102 52.5635 31.79 53.5665 32.1444C54.7143 32.5503 55.9102 32.3342 56.9828 31.8199C57.3152 31.6399 57.617 31.4001 57.9957 31.3217C58.1914 31.2815 58.3846 31.3026 58.5515 31.4182C58.7569 31.5605 58.9229 31.8421 58.9501 32.0907C58.9758 32.3239 58.8851 32.5384 58.7405 32.7174C58.1129 33.4952 56.7161 33.8861 55.7655 34.0027C54.1157 34.2049 52.3972 33.8743 51.0769 32.8216C49.8358 31.8514 49.0461 30.4155 48.8916 28.8481C48.7281 27.2863 49.1861 25.723 50.1665 24.4965C51.1603 23.2746 52.5163 22.535 54.0782 22.3678Z" fill="#030A06"/>
<path d="M89.3152 19.4161C89.3482 19.4146 89.3807 19.413 89.4132 19.412C89.7056 19.4027 89.9996 19.4811 90.2064 19.6967C90.6995 20.212 90.5035 21.9481 90.4979 22.6588C91.1694 22.6629 92.8034 22.454 93.3068 22.9017C93.4888 23.0642 93.5631 23.2891 93.5636 23.5289C93.5647 23.7615 93.5043 23.9843 93.3315 24.1484C92.8611 24.594 91.1627 24.4186 90.4968 24.4145C90.503 25.8422 90.3101 30.2428 90.7501 31.3259C91.4613 33.0775 93.003 31.5368 93.8824 31.951C94.0706 32.0397 94.2249 32.2269 94.2945 32.4219C94.3935 32.6994 94.3053 32.9475 94.1913 33.2023C94.1717 33.2239 94.1521 33.2451 94.1325 33.2662C93.6013 33.8197 92.6033 33.9527 91.8703 33.963C91.0198 33.9754 90.2157 33.831 89.5875 33.2018C89.1336 32.7469 88.8515 32.1228 88.7133 31.5018C88.4997 30.5424 88.5879 29.4804 88.5885 28.502L88.591 24.416C88.0753 24.4155 87.559 24.4119 87.0432 24.4037C86.9581 24.3505 86.8751 24.2959 86.8003 24.2283C86.5965 24.0447 86.5037 23.7708 86.4965 23.5011C86.4903 23.2751 86.5594 23.0523 86.7281 22.8961C87.1448 22.5103 88.0613 22.6485 88.591 22.6578C88.5895 21.9145 88.4265 20.5818 88.7071 19.9278C88.8319 19.6374 89.0356 19.5322 89.3152 19.4161Z" fill="#030A06"/>
<path fill-rule="evenodd" clip-rule="evenodd" d="M48.3945 19.1377C47.5058 19.0504 43.156 19.0813 41.6469 19.1035C41.3695 19.1076 41.1121 19.1265 40.8861 19.1432C40.6938 19.1573 40.5242 19.1698 40.3842 19.1701C40.3842 19.1701 39.7837 19.311 39.5889 19.5815C39.4616 19.7587 39.4181 19.9835 39.3877 20.195C39.2265 21.3187 39.1321 22.4652 39.0381 23.6079C38.9886 24.2092 38.9392 24.8096 38.8802 25.405L38.3079 31.1812C38.2927 31.3356 38.2663 31.5464 38.2363 31.7857C38.1394 32.5594 38.0051 33.6311 38.092 34.0576C38.14 34.294 38.2653 34.4893 38.4743 34.6125C38.6806 34.7341 38.9143 34.8033 39.1491 34.8431L39.1512 34.8431C39.6365 34.8421 40.3683 34.8497 41.186 34.8581C42.8814 34.8757 47.1923 34.8971 48.1947 34.8539C48.3946 34.8452 48.6064 34.8281 48.7948 34.757C49.0478 34.661 49.2558 34.4779 49.3559 34.2231C49.4566 33.9668 49.4343 33.6795 49.32 33.4319C49.2052 33.1823 49.0499 33.0492 48.7895 32.9657H40.1249C40.2694 31.69 40.3987 30.4127 40.5126 29.134L40.6149 28.0946L40.6249 27.9915C40.6925 27.9924 40.7817 27.9938 40.8876 27.9954C41.7701 28.0087 46.0655 28.0396 46.6128 27.958C46.8136 27.9281 47.0012 27.8775 47.1482 27.7295C47.3384 27.5376 47.4174 27.2725 47.4017 27.0064C47.3884 26.7805 47.2884 26.5345 47.1167 26.3823C47.0021 26.2812 46.8601 26.2157 46.7085 26.1946C46.197 26.1201 42.3782 26.1403 41.4141 26.1527C41.1555 26.156 40.9407 26.1588 40.8019 26.159L41.2411 20.977H45.917C46.1554 20.9771 46.4037 20.9851 46.6558 20.9932C47.2661 21.0127 47.8986 21.033 48.4661 20.945C48.6679 20.9141 48.841 20.8449 48.9874 20.698C49.1667 20.5179 49.2648 20.2456 49.2511 19.9929C49.237 19.735 49.0982 19.4895 48.8965 19.3311C48.7428 19.2105 48.5871 19.1563 48.3945 19.1377Z" fill="#030A06"/>
</svg>
