<svg width="21" height="15" viewBox="0 0 21 15" fill="none" xmlns="http://www.w3.org/2000/svg">
<path d="M20.3394 2.87195C20.2255 2.44935 20.0029 2.06396 19.6938 1.75412C19.3847 1.44428 18.9998 1.22081 18.5774 1.10595C17.0114 0.675953 10.7464 0.668953 10.7464 0.668953C10.7464 0.668953 4.48242 0.661953 2.91542 1.07295C2.49335 1.1931 2.10925 1.41973 1.79999 1.73109C1.49073 2.04244 1.26671 2.42807 1.14942 2.85095C0.736424 4.41695 0.732423 7.66495 0.732423 7.66495C0.732423 7.66495 0.728423 10.929 1.13842 12.479C1.36842 13.336 2.04342 14.013 2.90142 14.244C4.48342 14.674 10.7314 14.681 10.7314 14.681C10.7314 14.681 16.9964 14.688 18.5624 14.278C18.9849 14.1633 19.3702 13.9403 19.6801 13.6311C19.99 13.3219 20.2138 12.9372 20.3294 12.515C20.7434 10.95 20.7464 7.70295 20.7464 7.70295C20.7464 7.70295 20.7664 4.43795 20.3394 2.87195ZM8.74242 10.674L8.74742 4.67395L13.9544 7.67895L8.74242 10.674Z" fill="#030A06"/>
</svg>
